<svg xmlns="http://www.w3.org/2000/svg" xmlns:xlink="http://www.w3.org/1999/xlink" width="860" zoomAndPan="magnify" viewBox="0 0 645 645.000003" height="860" preserveAspectRatio="xMidYMid meet" version="1.0"><defs><clipPath id="227189d5a8"><path d="M 0.5 0 L 644.5 0 L 644.5 644 L 0.5 644 Z M 0.5 0 " clip-rule="nonzero"/></clipPath></defs><g clip-path="url(#227189d5a8)"><path fill="#ffffff" d="M 0.5 0 L 644.5 0 L 644.5 644 L 0.5 644 Z M 0.5 0 " fill-opacity="1" fill-rule="nonzero"/><path fill="#ffffff" d="M 0.5 0 L 644.5 0 L 644.5 644 L 0.5 644 Z M 0.5 0 " fill-opacity="1" fill-rule="nonzero"/></g><path fill="#caddff" d="M 158.230469 177.363281 C 221.089844 114.066406 203.09375 74.394531 246.105469 45.085938 C 312.285156 -0.00390625 435.804688 38.789062 508.675781 100.820312 C 597.921875 176.789062 643.976562 315.496094 591.519531 440.988281 C 535.65625 574.628906 388.667969 644 257.511719 623.097656 C 140.390625 604.425781 25.257812 512.066406 13.71875 401.292969 C 12.46875 389.292969 6.949219 324.390625 45.664062 268.433594 C 77.664062 222.179688 108.402344 227.542969 158.230469 177.363281 " fill-opacity="1" fill-rule="nonzero"/><path fill="#99b9ff" d="M 145.164062 145.527344 C 123.980469 139.15625 111.972656 116.804688 118.347656 95.601562 C 124.722656 74.390625 147.066406 62.363281 168.25 68.730469 C 189.433594 75.09375 201.441406 97.445312 195.066406 118.65625 C 188.6875 139.863281 166.347656 151.890625 145.164062 145.527344 Z M 231.546875 137.753906 L 236.03125 122.832031 L 221.234375 114.480469 C 221.652344 110.839844 221.773438 107.214844 221.582031 103.632812 L 236.84375 96.1875 L 233.277344 81.027344 L 216.277344 81.203125 C 214.835938 77.886719 213.121094 74.695312 211.152344 71.660156 L 220.667969 57.554688 L 210.003906 46.214844 L 195.386719 54.859375 C 192.507812 52.726562 189.421875 50.828125 186.15625 49.171875 L 187.355469 32.199219 L 172.453125 27.722656 L 164.09375 42.539062 C 160.457031 42.121094 156.835938 42.003906 153.257812 42.199219 L 145.828125 26.929688 L 130.679688 30.507812 L 130.839844 47.519531 C 127.527344 48.96875 124.335938 50.683594 121.304688 52.65625 L 107.214844 43.140625 L 95.882812 53.824219 L 104.507812 68.449219 C 102.375 71.328125 100.476562 74.421875 98.820312 77.691406 L 81.867188 76.503906 L 77.382812 91.417969 L 92.179688 99.773438 C 91.761719 103.414062 91.640625 107.042969 91.832031 110.617188 L 76.570312 118.066406 L 80.136719 133.222656 L 97.136719 133.054688 C 98.578125 136.371094 100.289062 139.5625 102.261719 142.59375 L 92.746094 156.703125 L 103.410156 168.035156 L 118.027344 159.394531 C 120.90625 161.527344 123.992188 163.425781 127.257812 165.085938 L 126.058594 182.050781 L 140.960938 186.527344 L 149.316406 171.714844 C 152.953125 172.128906 156.578125 172.25 160.15625 172.054688 L 167.585938 187.324219 L 182.730469 183.746094 L 182.570312 166.730469 C 185.886719 165.289062 189.078125 163.570312 192.109375 161.597656 L 206.195312 171.109375 L 217.53125 160.433594 L 208.90625 145.804688 C 211.039062 142.921875 212.9375 139.832031 214.59375 136.566406 L 231.546875 137.753906 " fill-opacity="1" fill-rule="nonzero"/><path fill="#5479f7" d="M 161.894531 66.726562 C 145.207031 66.726562 129.726562 77.546875 124.589844 94.332031 C 121.539062 104.292969 122.546875 114.847656 127.429688 124.042969 C 132.308594 133.242188 140.476562 139.988281 150.429688 143.03125 C 154.210938 144.1875 158.039062 144.738281 161.800781 144.738281 C 178.488281 144.742188 193.972656 133.917969 199.109375 117.132812 C 202.160156 107.171875 201.152344 96.617188 196.269531 87.417969 C 191.390625 78.222656 183.21875 71.476562 173.265625 68.429688 C 169.484375 67.273438 165.65625 66.726562 161.894531 66.726562 Z M 161.800781 146.910156 C 157.828125 146.910156 153.789062 146.332031 149.796875 145.109375 C 139.289062 141.894531 130.664062 134.773438 125.511719 125.066406 C 120.355469 115.351562 119.292969 104.210938 122.511719 93.695312 C 129.160156 71.976562 152.214844 59.71875 173.902344 66.351562 C 184.410156 69.570312 193.035156 76.691406 198.1875 86.398438 C 203.34375 96.113281 204.40625 107.25 201.1875 117.769531 C 195.765625 135.488281 179.417969 146.910156 161.800781 146.910156 Z M 164.972656 169.59375 C 165.386719 169.59375 165.769531 169.828125 165.949219 170.207031 L 172.925781 184.726562 L 186.398438 181.617188 L 186.328125 165.472656 C 186.328125 165.035156 186.585938 164.640625 186.984375 164.46875 C 190.238281 163.070312 193.402344 161.382812 196.390625 159.464844 C 196.757812 159.230469 197.230469 159.234375 197.589844 159.480469 L 210.910156 168.574219 L 221.027344 159.136719 L 212.914062 145.21875 C 212.695312 144.84375 212.722656 144.371094 212.984375 144.019531 C 215.078125 141.21875 216.976562 138.171875 218.621094 134.964844 C 218.820312 134.578125 219.230469 134.347656 219.667969 134.375 L 235.75 135.585938 L 239.800781 122.351562 L 225.796875 114.351562 C 225.417969 114.136719 225.207031 113.710938 225.257812 113.28125 C 225.691406 109.703125 225.824219 106.117188 225.65625 102.617188 C 225.636719 102.179688 225.878906 101.773438 226.269531 101.585938 L 240.785156 94.59375 L 237.683594 81.109375 L 221.554688 81.191406 C 221.554688 81.191406 221.550781 81.191406 221.550781 81.191406 C 221.117188 81.191406 220.722656 80.929688 220.550781 80.535156 C 219.152344 77.273438 217.476562 74.109375 215.558594 71.125 C 215.324219 70.757812 215.328125 70.285156 215.574219 69.921875 L 224.671875 56.582031 L 215.25 46.464844 L 201.335938 54.601562 C 200.960938 54.816406 200.488281 54.789062 200.140625 54.527344 C 197.339844 52.429688 194.296875 50.535156 191.09375 48.890625 C 190.707031 48.691406 190.472656 48.277344 190.507812 47.839844 L 191.722656 31.75 L 178.507812 27.703125 L 170.503906 41.722656 C 170.289062 42.097656 169.867188 42.316406 169.433594 42.261719 C 165.859375 41.832031 162.273438 41.699219 158.78125 41.871094 C 158.355469 41.902344 157.9375 41.648438 157.75 41.257812 L 150.769531 26.730469 L 137.300781 29.847656 L 137.371094 45.992188 C 137.371094 46.425781 137.113281 46.824219 136.710938 46.992188 C 133.453125 48.394531 130.289062 50.078125 127.308594 52 C 126.941406 52.234375 126.46875 52.230469 126.109375 51.980469 L 112.785156 42.886719 L 102.667969 52.320312 L 110.785156 66.246094 C 111.003906 66.621094 110.976562 67.089844 110.714844 67.441406 C 108.617188 70.246094 106.722656 73.289062 105.074219 76.5 C 104.878906 76.886719 104.476562 77.121094 104.03125 77.085938 L 87.949219 75.878906 L 83.898438 89.113281 L 97.898438 97.109375 C 98.277344 97.328125 98.492188 97.75 98.441406 98.183594 C 98.007812 101.761719 97.875 105.351562 98.042969 108.847656 C 98.0625 109.28125 97.820312 109.6875 97.429688 109.878906 L 82.910156 116.871094 L 86.011719 130.351562 L 102.144531 130.269531 C 102.5625 130.253906 102.976562 130.527344 103.148438 130.929688 C 104.542969 134.1875 106.222656 137.355469 108.140625 140.335938 C 108.375 140.707031 108.367188 141.179688 108.121094 141.535156 L 99.027344 154.878906 L 108.445312 164.996094 L 122.359375 156.863281 C 122.738281 156.644531 123.210938 156.671875 123.558594 156.933594 C 126.355469 159.027344 129.398438 160.925781 132.605469 162.570312 C 132.992188 162.773438 133.222656 163.183594 133.191406 163.617188 L 131.972656 179.714844 L 145.191406 183.757812 L 153.191406 169.738281 C 153.410156 169.359375 153.832031 169.148438 154.265625 169.203125 C 157.84375 169.628906 161.429688 169.761719 164.917969 169.59375 C 164.933594 169.59375 164.953125 169.59375 164.972656 169.59375 Z M 172.324219 187.070312 C 171.914062 187.070312 171.53125 186.839844 171.347656 186.457031 L 164.300781 171.792969 C 161.15625 171.910156 157.9375 171.789062 154.722656 171.441406 L 146.648438 185.589844 C 146.398438 186.03125 145.871094 186.242188 145.386719 186.09375 L 130.507812 181.539062 C 130.023438 181.390625 129.707031 180.925781 129.742188 180.417969 L 130.972656 164.171875 C 128.109375 162.664062 125.382812 160.960938 122.839844 159.101562 L 108.792969 167.308594 C 108.355469 167.566406 107.796875 167.484375 107.453125 167.113281 L 96.847656 155.726562 C 96.5 155.351562 96.457031 154.792969 96.742188 154.375 L 105.925781 140.902344 C 104.234375 138.203125 102.726562 135.363281 101.4375 132.449219 L 85.15625 132.53125 C 85.152344 132.53125 85.152344 132.53125 85.152344 132.53125 C 84.644531 132.53125 84.203125 132.179688 84.09375 131.6875 L 80.601562 116.511719 C 80.484375 116.015625 80.730469 115.511719 81.1875 115.285156 L 95.84375 108.226562 C 95.726562 105.078125 95.847656 101.855469 96.199219 98.640625 L 82.066406 90.570312 C 81.625 90.316406 81.417969 89.792969 81.566406 89.304688 L 86.125 74.414062 C 86.273438 73.929688 86.75 73.609375 87.246094 73.648438 L 103.476562 74.867188 C 104.984375 72.003906 106.6875 69.269531 108.546875 66.71875 L 100.355469 52.671875 C 100.101562 52.230469 100.183594 51.671875 100.554688 51.328125 L 111.941406 40.707031 C 112.3125 40.359375 112.875 40.316406 113.292969 40.601562 L 126.742188 49.78125 C 129.441406 48.089844 132.277344 46.578125 135.195312 45.289062 L 135.121094 28.988281 C 135.121094 28.480469 135.46875 28.039062 135.964844 27.921875 L 151.128906 24.417969 C 151.628906 24.304688 152.132812 24.550781 152.351562 25.007812 L 159.394531 39.667969 C 162.546875 39.550781 165.761719 39.667969 168.972656 40.023438 L 177.050781 25.871094 C 177.300781 25.429688 177.828125 25.222656 178.3125 25.371094 L 193.1875 29.925781 C 193.675781 30.074219 193.992188 30.535156 193.957031 31.046875 L 192.726562 47.289062 C 195.585938 48.796875 198.316406 50.5 200.859375 52.359375 L 214.90625 44.152344 C 215.34375 43.898438 215.902344 43.980469 216.25 44.347656 L 226.851562 55.738281 C 227.199219 56.113281 227.238281 56.671875 226.957031 57.089844 L 217.773438 70.558594 C 219.464844 73.261719 220.972656 76.101562 222.257812 79.015625 L 238.542969 78.933594 L 238.546875 78.933594 C 239.054688 78.933594 239.492188 79.28125 239.609375 79.773438 L 243.097656 94.949219 C 243.210938 95.445312 242.96875 95.953125 242.507812 96.171875 L 227.855469 103.230469 C 227.972656 106.386719 227.851562 109.605469 227.496094 112.820312 L 241.632812 120.894531 C 242.074219 121.148438 242.277344 121.671875 242.132812 122.160156 L 237.574219 137.050781 C 237.421875 137.535156 236.957031 137.855469 236.453125 137.8125 L 220.21875 136.597656 C 218.714844 139.460938 217.011719 142.195312 215.152344 144.742188 L 223.34375 158.792969 C 223.597656 159.234375 223.515625 159.792969 223.144531 160.136719 L 211.757812 170.757812 C 211.386719 171.105469 210.824219 171.144531 210.40625 170.859375 L 196.957031 161.679688 C 194.253906 163.378906 191.414062 164.886719 188.503906 166.175781 L 188.574219 182.476562 C 188.578125 182.980469 188.226562 183.421875 187.734375 183.539062 L 172.570312 187.042969 C 172.488281 187.0625 172.40625 187.070312 172.324219 187.070312 " fill-opacity="1" fill-rule="nonzero"/><path fill="#ffffff" d="M 449.394531 243.804688 C 452.433594 222.226562 472.375 207.203125 493.933594 210.246094 C 515.496094 213.28125 530.511719 233.234375 527.476562 254.808594 C 524.4375 276.382812 504.496094 291.40625 482.933594 288.367188 C 461.371094 285.324219 446.355469 265.375 449.394531 243.804688 " fill-opacity="1" fill-rule="nonzero"/><path fill="#000000" d="M 450.464844 243.957031 C 447.519531 264.898438 462.148438 284.339844 483.082031 287.292969 C 504.027344 290.242188 523.449219 275.601562 526.398438 254.660156 C 527.824219 244.511719 525.222656 234.417969 519.0625 226.230469 C 512.902344 218.046875 503.921875 212.75 493.78125 211.320312 C 472.84375 208.363281 453.414062 223.007812 450.464844 243.957031 Z M 488.460938 289.84375 C 486.582031 289.84375 484.6875 289.714844 482.777344 289.445312 C 460.664062 286.324219 445.203125 265.78125 448.316406 243.652344 C 451.433594 221.519531 471.96875 206.046875 494.085938 209.167969 C 504.800781 210.679688 514.285156 216.273438 520.796875 224.921875 C 527.300781 233.570312 530.058594 244.242188 528.546875 254.957031 C 525.699219 275.183594 508.3125 289.84375 488.460938 289.84375 " fill-opacity="1" fill-rule="nonzero"/><path fill="#99b9ff" d="M 507.003906 269.675781 L 465.179688 263.78125 C 464.273438 263.652344 463.636719 262.8125 463.761719 261.902344 L 468.007812 231.773438 C 468.132812 230.863281 468.976562 230.230469 469.886719 230.359375 L 511.710938 236.257812 C 512.621094 236.382812 513.253906 237.226562 513.125 238.132812 L 508.882812 268.261719 C 508.753906 269.171875 507.910156 269.804688 507.003906 269.675781 " fill-opacity="1" fill-rule="nonzero"/><path fill="#000000" d="M 505.167969 268.320312 C 505.851562 268.417969 506.527344 268.242188 507.078125 267.832031 C 507.628906 267.414062 507.984375 266.8125 508.078125 266.128906 L 511.765625 239.972656 C 511.960938 238.5625 510.980469 237.253906 509.570312 237.054688 L 471.714844 231.71875 C 471.03125 231.621094 470.355469 231.796875 469.804688 232.214844 C 469.25 232.625 468.898438 233.230469 468.800781 233.914062 L 465.117188 260.070312 C 464.921875 261.476562 465.90625 262.789062 467.3125 262.984375 Z M 505.535156 270.523438 C 505.3125 270.523438 505.085938 270.507812 504.863281 270.476562 L 467.007812 265.136719 C 464.414062 264.773438 462.601562 262.363281 462.96875 259.769531 L 466.652344 233.613281 C 466.828125 232.351562 467.484375 231.242188 468.5 230.476562 C 469.511719 229.710938 470.757812 229.386719 472.019531 229.570312 L 509.871094 234.90625 C 512.464844 235.269531 514.277344 237.675781 513.914062 240.273438 L 510.234375 266.429688 C 510.054688 267.6875 509.398438 268.800781 508.382812 269.566406 C 507.550781 270.191406 506.558594 270.523438 505.535156 270.523438 " fill-opacity="1" fill-rule="nonzero"/><path fill="#000000" d="M 488.40625 252.613281 C 488.152344 252.613281 487.898438 252.527344 487.6875 252.34375 L 474.546875 240.796875 C 474.09375 240.402344 474.050781 239.71875 474.441406 239.265625 C 474.835938 238.816406 475.527344 238.769531 475.976562 239.164062 L 489.125 250.710938 C 489.574219 251.105469 489.621094 251.792969 489.226562 252.242188 C 489.007812 252.492188 488.707031 252.613281 488.40625 252.613281 " fill-opacity="1" fill-rule="nonzero"/><path fill="#000000" d="M 488.503906 252.628906 C 488.097656 252.628906 487.707031 252.398438 487.523438 252.003906 C 487.269531 251.464844 487.503906 250.820312 488.042969 250.558594 L 503.871094 243.097656 C 504.410156 242.84375 505.0625 243.078125 505.316406 243.621094 C 505.570312 244.164062 505.335938 244.808594 504.796875 245.0625 L 488.96875 252.527344 C 488.820312 252.59375 488.664062 252.628906 488.503906 252.628906 " fill-opacity="1" fill-rule="nonzero"/><path fill="#ffffff" d="M 467.785156 350.320312 C 465.753906 328.628906 481.683594 309.394531 503.359375 307.359375 C 525.039062 305.328125 544.261719 321.261719 546.296875 342.949219 C 548.332031 364.644531 532.40625 383.878906 510.722656 385.910156 C 489.046875 387.945312 469.820312 372.011719 467.785156 350.320312 " fill-opacity="1" fill-rule="nonzero"/><path fill="#000000" d="M 507.113281 308.269531 C 505.902344 308.269531 504.6875 308.324219 503.464844 308.4375 C 493.269531 309.394531 484.054688 314.269531 477.523438 322.160156 C 470.988281 330.050781 467.917969 340.015625 468.875 350.214844 C 470.734375 370.0625 487.476562 384.996094 507.019531 384.996094 C 508.210938 384.996094 509.414062 384.941406 510.628906 384.828125 C 531.675781 382.851562 547.191406 364.109375 545.21875 343.050781 C 544.261719 332.847656 539.390625 323.628906 531.503906 317.09375 C 524.566406 311.339844 516.015625 308.269531 507.113281 308.269531 Z M 506.972656 387.171875 C 497.566406 387.171875 488.535156 383.925781 481.199219 377.847656 C 472.867188 370.9375 467.722656 361.199219 466.710938 350.421875 C 465.699219 339.636719 468.945312 329.113281 475.851562 320.773438 C 482.753906 312.433594 492.488281 307.285156 503.261719 306.273438 C 514.03125 305.265625 524.5625 308.511719 532.890625 315.417969 C 541.226562 322.328125 546.371094 332.066406 547.382812 342.84375 C 549.46875 365.101562 533.070312 384.902344 510.832031 386.992188 C 509.539062 387.113281 508.25 387.171875 506.972656 387.171875 " fill-opacity="1" fill-rule="nonzero"/><path fill="#99b9ff" d="M 523.390625 362.25 L 518.164062 355.773438 C 517.730469 355.234375 516.8125 354.804688 516.121094 354.8125 L 515.242188 354.832031 C 514.449219 354.84375 513.675781 355.039062 512.941406 355.34375 C 510.878906 356.191406 507.554688 356.214844 503.199219 348.671875 C 498.875 341.175781 500.519531 338.296875 502.273438 336.925781 C 503.03125 336.332031 503.652344 335.566406 504.152344 334.738281 L 504.34375 334.417969 C 504.703125 333.820312 504.789062 332.804688 504.542969 332.160156 L 501.550781 324.394531 C 501.300781 323.75 500.542969 323.324219 499.859375 323.445312 L 497.929688 323.804688 C 496.308594 324.101562 494.804688 324.914062 493.730469 326.167969 C 489.164062 331.5 489.929688 342.1875 496.054688 352.804688 C 502.195312 363.445312 511.089844 369.457031 517.996094 368.132812 C 519.585938 367.828125 521.015625 366.953125 522.066406 365.714844 L 523.367188 364.183594 C 523.816406 363.660156 523.828125 362.785156 523.390625 362.25 " fill-opacity="1" fill-rule="nonzero"/><path fill="#000000" d="M 500.101562 324.511719 C 500.085938 324.511719 500.070312 324.511719 500.054688 324.515625 L 498.125 324.867188 C 496.703125 325.132812 495.433594 325.84375 494.554688 326.875 C 490.257812 331.886719 491.265625 342.328125 496.996094 352.257812 C 502.746094 362.226562 511.289062 368.3125 517.792969 367.0625 C 519.105469 366.8125 520.328125 366.082031 521.234375 365.011719 L 522.539062 363.480469 C 522.652344 363.355469 522.652344 363.0625 522.546875 362.933594 C 522.546875 362.933594 522.546875 362.933594 522.546875 362.929688 L 517.320312 356.453125 C 517.097656 356.175781 516.511719 355.90625 516.132812 355.902344 L 515.261719 355.917969 C 514.664062 355.929688 514.023438 356.070312 513.355469 356.347656 C 509.5625 357.90625 505.929688 355.578125 502.265625 349.214844 C 498.605469 342.882812 498.390625 338.582031 501.605469 336.070312 C 502.207031 335.59375 502.753906 334.960938 503.21875 334.175781 L 503.417969 333.855469 C 503.601562 333.542969 503.660156 332.886719 503.527344 332.550781 L 500.539062 324.785156 C 500.480469 324.640625 500.265625 324.511719 500.101562 324.511719 Z M 516.039062 369.398438 C 508.976562 369.398438 500.828125 363.242188 495.113281 353.347656 C 488.832031 342.460938 487.941406 331.253906 492.902344 325.460938 C 494.109375 324.050781 495.824219 323.082031 497.734375 322.734375 L 499.664062 322.378906 C 500.855469 322.15625 502.125 322.875 502.5625 324.003906 L 505.558594 331.765625 C 505.921875 332.722656 505.804688 334.101562 505.277344 334.972656 L 505.085938 335.296875 C 504.472656 336.308594 503.753906 337.144531 502.941406 337.78125 C 502.125 338.417969 499.652344 340.351562 504.144531 348.128906 C 508.644531 355.933594 511.566406 354.734375 512.53125 354.339844 C 513.449219 353.960938 514.355469 353.761719 515.222656 353.742188 L 516.097656 353.726562 C 517.125 353.691406 518.375 354.300781 519.011719 355.085938 L 524.234375 361.570312 C 524.996094 362.511719 524.980469 363.96875 524.195312 364.886719 L 522.890625 366.421875 C 521.660156 367.867188 519.996094 368.855469 518.199219 369.199219 C 517.492188 369.332031 516.769531 369.398438 516.039062 369.398438 " fill-opacity="1" fill-rule="nonzero"/><path fill="#5479f7" d="M 70.394531 250.652344 C 54.988281 246.019531 46.257812 229.761719 50.894531 214.339844 C 55.53125 198.914062 71.777344 190.167969 87.183594 194.796875 C 102.59375 199.425781 111.324219 215.683594 106.6875 231.109375 C 102.050781 246.53125 85.800781 255.28125 70.394531 250.652344 Z M 133.21875 244.996094 L 136.480469 234.148438 L 125.71875 228.070312 C 126.027344 225.425781 126.109375 222.785156 125.972656 220.183594 L 137.074219 214.765625 L 134.476562 203.746094 L 122.117188 203.871094 C 121.066406 201.457031 119.820312 199.132812 118.386719 196.929688 L 125.308594 186.667969 L 117.554688 178.425781 L 106.921875 184.710938 C 104.828125 183.160156 102.582031 181.78125 100.207031 180.574219 L 101.078125 168.234375 L 90.242188 164.976562 L 84.164062 175.753906 C 81.519531 175.449219 78.882812 175.363281 76.28125 175.503906 L 70.878906 164.398438 L 59.863281 167 L 59.980469 179.375 C 57.566406 180.425781 55.246094 181.675781 53.042969 183.105469 L 42.796875 176.191406 L 34.554688 183.953125 L 40.828125 194.59375 C 39.277344 196.691406 37.894531 198.9375 36.691406 201.316406 L 24.359375 200.449219 L 21.097656 211.296875 L 31.859375 217.378906 C 31.554688 220.023438 31.46875 222.660156 31.605469 225.261719 L 20.507812 230.679688 L 23.101562 241.703125 L 35.464844 241.582031 C 36.511719 243.992188 37.761719 246.3125 39.191406 248.519531 L 32.273438 258.777344 L 40.027344 267.019531 L 50.660156 260.734375 C 52.753906 262.292969 54.996094 263.667969 57.371094 264.875 L 56.5 277.214844 L 67.335938 280.46875 L 73.417969 269.699219 C 76.0625 270 78.695312 270.085938 81.296875 269.945312 L 86.703125 281.050781 L 97.71875 278.449219 L 97.601562 266.074219 C 100.011719 265.023438 102.332031 263.773438 104.539062 262.339844 L 114.785156 269.257812 L 123.027344 261.492188 L 116.753906 250.855469 C 118.304688 248.761719 119.6875 246.511719 120.890625 244.136719 L 133.21875 244.996094 " fill-opacity="1" fill-rule="nonzero"/><path fill="#5479f7" d="M 17.363281 595.429688 C 17.363281 595.429688 14.75 439.347656 119.585938 380.40625 C 158.371094 358.601562 204.789062 355.644531 250.003906 357.578125 C 281.8125 358.941406 312.695312 357.988281 341.359375 375.148438 C 382.078125 399.523438 416.976562 441.527344 438.570312 505.953125 L 458.167969 623.011719 L 17.363281 595.429688 " fill-opacity="1" fill-rule="nonzero"/><path fill="#5479f7" d="M 193.347656 616.097656 C 68.40625 614.320312 30.882812 628.566406 20.125 608.460938 C 6.285156 582.589844 46.285156 517.628906 97.550781 505.03125 C 110.328125 501.898438 127.140625 501.1875 263.457031 573.472656 C 311.265625 598.820312 324.683594 607.121094 323.105469 613.390625 C 320.359375 624.273438 275.335938 617.269531 193.347656 616.097656 " fill-opacity="1" fill-rule="nonzero"/><path fill="#ffffff" d="M 163.960938 516.347656 C 163.875 516.347656 163.785156 516.335938 163.695312 516.3125 C 163.113281 516.167969 162.761719 515.574219 162.90625 514.996094 C 173.496094 472.824219 203.921875 438.164062 204.226562 437.820312 C 204.628906 437.367188 205.3125 437.328125 205.761719 437.726562 C 206.210938 438.125 206.25 438.808594 205.851562 439.261719 C 205.550781 439.601562 175.46875 473.878906 165.011719 515.527344 C 164.890625 516.019531 164.445312 516.347656 163.960938 516.347656 " fill-opacity="1" fill-rule="nonzero"/><path fill="#ffffff" d="M 263.457031 573.472656 C 235.261719 558.523438 212.191406 546.703125 193.199219 537.371094 C 174.835938 549.613281 152.695312 573.363281 155.210938 616.027344 C 166.921875 615.902344 179.605469 615.902344 193.347656 616.097656 C 275.335938 617.269531 320.359375 624.273438 323.105469 613.390625 C 324.683594 607.121094 311.265625 598.820312 263.457031 573.472656 " fill-opacity="1" fill-rule="nonzero"/><path fill="#000000" d="M 171.257812 614.855469 C 178.601562 614.855469 185.992188 614.90625 193.363281 615.011719 C 219.269531 615.382812 241.765625 616.347656 259.839844 617.121094 C 297.597656 618.738281 320.390625 619.714844 322.050781 613.125 C 323.449219 607.574219 308.519531 598.597656 262.949219 574.429688 C 236.214844 560.253906 212.78125 548.210938 193.285156 538.625 C 175.082031 550.929688 154.199219 574.074219 156.238281 614.929688 C 161.207031 614.882812 166.222656 614.855469 171.257812 614.855469 Z M 297.253906 620.480469 C 287.488281 620.480469 275.015625 619.945312 259.746094 619.289062 C 241.683594 618.519531 219.207031 617.554688 193.332031 617.1875 C 180.570312 617.003906 167.75 616.980469 155.222656 617.113281 C 155.21875 617.113281 155.214844 617.113281 155.210938 617.113281 C 154.636719 617.113281 154.160156 616.664062 154.128906 616.089844 C 151.59375 573.167969 173.652344 549.101562 192.597656 536.46875 C 192.921875 536.25 193.332031 536.226562 193.679688 536.394531 C 213.308594 546.039062 236.953125 558.191406 263.960938 572.507812 C 312.945312 598.484375 325.953125 606.527344 324.15625 613.65625 C 322.835938 618.902344 314.03125 620.480469 297.253906 620.480469 " fill-opacity="1" fill-rule="nonzero"/><path fill="#ffffff" d="M 189.089844 536.445312 C 188.898438 536.445312 188.710938 536.394531 188.535156 536.292969 C 188.34375 536.179688 168.777344 524.664062 146.886719 515.6875 C 146.332031 515.457031 146.066406 514.824219 146.292969 514.269531 C 146.519531 513.714844 147.15625 513.449219 147.710938 513.675781 C 169.753906 522.71875 189.445312 534.308594 189.640625 534.421875 C 190.160156 534.726562 190.328125 535.394531 190.023438 535.910156 C 189.820312 536.253906 189.460938 536.445312 189.089844 536.445312 " fill-opacity="1" fill-rule="nonzero"/><path fill="#ffffff" d="M 159.675781 514.589844 C 159.277344 514.589844 158.890625 514.367188 158.703125 513.988281 C 150.394531 497.152344 156.921875 475.871094 157.203125 474.976562 C 157.382812 474.40625 157.992188 474.085938 158.5625 474.269531 C 159.136719 474.449219 159.453125 475.054688 159.273438 475.625 C 159.210938 475.839844 152.734375 496.980469 160.648438 513.023438 C 160.914062 513.558594 160.695312 514.214844 160.15625 514.480469 C 160.003906 514.554688 159.839844 514.589844 159.675781 514.589844 " fill-opacity="1" fill-rule="nonzero"/><path fill="#ffffff" d="M 239.285156 269.699219 L 215.457031 347.082031 C 215.457031 347.082031 157.457031 356.441406 130.398438 376.746094 C 130.398438 376.746094 175.769531 358.996094 203.324219 378.023438 C 230.875 397.050781 299.886719 404.226562 339.550781 379.554688 C 339.550781 379.554688 284.828125 355.972656 284.414062 354.46875 C 283.710938 351.964844 286.601562 344.886719 286.601562 344.886719 C 286.601562 344.886719 293.027344 348.84375 301.640625 351.128906 C 308.085938 352.835938 313.3125 348.199219 316.160156 342.148438 C 322.648438 328.347656 326.941406 310.085938 326.941406 310.085938 L 337.09375 307.558594 C 335.839844 292.492188 332.300781 285.160156 335.0625 271.339844 C 337.335938 259.988281 345.914062 257.914062 345.914062 231 L 272.183594 204 L 239.304688 238.148438 C 239.304688 238.148438 235.996094 231.953125 227.730469 234.601562 C 219.464844 237.25 218.132812 273.445312 227.128906 275.121094 C 233.316406 276.273438 239.285156 269.699219 239.285156 269.699219 " fill-opacity="1" fill-rule="nonzero"/><path fill="#000000" d="M 170.5625 368.070312 C 182.015625 368.070312 194.039062 370.292969 203.941406 377.128906 C 217.539062 386.523438 241.679688 393.019531 266.941406 394.089844 C 294.492188 395.261719 319.324219 390.164062 337.183594 379.714844 C 332.921875 377.871094 322.269531 373.253906 311.699219 368.570312 C 283.765625 356.191406 283.578125 355.53125 283.363281 354.761719 C 282.609375 352.035156 285.09375 345.714844 285.597656 344.476562 C 285.714844 344.179688 285.960938 343.949219 286.261719 343.851562 C 286.570312 343.753906 286.898438 343.792969 287.171875 343.960938 C 287.234375 344 293.574219 347.867188 301.917969 350.078125 C 309.605469 352.113281 314.007812 344.167969 315.175781 341.683594 C 321.542969 328.144531 325.839844 310.015625 325.878906 309.835938 C 325.976562 309.4375 326.28125 309.128906 326.679688 309.03125 L 335.929688 306.726562 C 335.527344 302.28125 334.914062 298.445312 334.375 295.035156 C 333.148438 287.320312 332.09375 280.660156 334 271.132812 C 334.800781 267.109375 336.367188 264.203125 338.023438 261.125 C 341.167969 255.289062 344.71875 248.6875 344.824219 231.757812 L 272.476562 205.261719 L 240.089844 238.902344 C 239.847656 239.15625 239.496094 239.273438 239.160156 239.222656 C 238.8125 239.179688 238.511719 238.96875 238.347656 238.664062 C 238.234375 238.445312 235.320312 233.308594 228.0625 235.636719 C 224.214844 236.871094 221.390625 248.714844 222.132812 260.492188 C 222.621094 268.230469 224.660156 273.558594 227.328125 274.054688 C 232.859375 275.078125 238.425781 269.03125 238.484375 268.96875 C 238.828125 268.59375 239.386719 268.503906 239.824219 268.757812 C 240.269531 269.007812 240.476562 269.53125 240.324219 270.019531 L 216.496094 347.402344 C 216.375 347.800781 216.039062 348.089844 215.632812 348.15625 C 215.097656 348.242188 166.203125 356.285156 137.78125 373.144531 C 145.367188 370.914062 157.601562 368.070312 170.5625 368.070312 Z M 274.828125 396.457031 C 245.695312 396.457031 217.574219 389.183594 202.707031 378.917969 C 175.957031 360.441406 131.238281 377.585938 130.792969 377.757812 C 130.285156 377.957031 129.710938 377.75 129.449219 377.277344 C 129.183594 376.800781 129.3125 376.203125 129.742188 375.878906 C 155.140625 356.820312 208.054688 347.253906 214.617188 346.125 L 237.117188 273.0625 C 234.628906 274.90625 230.867188 276.921875 226.929688 276.1875 C 221.46875 275.171875 220.238281 264.96875 219.96875 260.628906 C 219.351562 250.871094 221.289062 235.527344 227.398438 233.566406 C 234.042969 231.4375 237.855469 234.609375 239.421875 236.460938 L 271.402344 203.25 C 271.703125 202.933594 272.15625 202.832031 272.558594 202.980469 L 346.285156 229.976562 C 346.710938 230.132812 347 230.542969 347 231 C 347 249.042969 343.246094 256.007812 339.9375 262.152344 C 338.289062 265.214844 336.867188 267.855469 336.128906 271.554688 C 334.296875 280.707031 335.28125 286.878906 336.519531 294.691406 C 337.105469 298.375 337.765625 302.546875 338.175781 307.46875 C 338.21875 308 337.871094 308.484375 337.351562 308.613281 L 327.839844 310.980469 C 327.007812 314.367188 322.917969 330.328125 317.140625 342.609375 C 314.363281 348.519531 308.761719 354.136719 301.359375 352.179688 C 294.699219 350.410156 289.378906 347.695312 287.15625 346.457031 C 286.191406 349.0625 285.222656 352.445312 285.40625 353.917969 C 288.527344 356.082031 319.472656 369.71875 339.984375 378.558594 C 340.351562 378.71875 340.605469 379.070312 340.636719 379.472656 C 340.664062 379.878906 340.472656 380.265625 340.125 380.476562 C 321.84375 391.847656 298.015625 396.457031 274.828125 396.457031 " fill-opacity="1" fill-rule="nonzero"/><path fill="#000000" d="M 239.289062 239.507812 C 239.289062 239.507812 250.601562 238.964844 250.394531 248.886719 C 250.1875 258.8125 244.03125 275.859375 254.089844 282.023438 C 264.144531 288.183594 270.304688 261.078125 270.304688 253.066406 C 270.304688 245.050781 278.304688 223.296875 293.804688 225.242188 C 310.917969 227.382812 319.695312 239.542969 345.914062 237.011719 C 349.867188 236.632812 364.289062 235.238281 368.441406 226 C 371.355469 219.496094 367.835938 212.113281 366.320312 209.039062 C 363.875 204.089844 356.058594 191.414062 317.585938 179.78125 C 290.234375 171.511719 276.558594 167.378906 265.378906 172.539062 C 246.542969 181.242188 236.820312 208.453125 239.289062 239.507812 " fill-opacity="1" fill-rule="nonzero"/><path fill="#ffffff" d="M 286.601562 344.886719 L 267.03125 333.011719 C 263.074219 330.613281 260.175781 326.792969 258.925781 322.335938 L 255.332031 309.558594 L 286.601562 344.886719 " fill-opacity="1" fill-rule="nonzero"/><path fill="#000000" d="M 286.601562 345.972656 C 286.40625 345.972656 286.214844 345.921875 286.039062 345.816406 L 266.472656 333.941406 C 262.261719 331.386719 259.210938 327.371094 257.875 322.632812 L 254.289062 309.851562 C 254.125 309.273438 254.460938 308.675781 255.039062 308.511719 C 255.613281 308.351562 256.214844 308.6875 256.378906 309.265625 L 259.972656 322.042969 C 261.152344 326.25 263.863281 329.820312 267.597656 332.082031 L 287.164062 343.957031 C 287.675781 344.269531 287.839844 344.933594 287.53125 345.449219 C 287.328125 345.785156 286.96875 345.972656 286.601562 345.972656 " fill-opacity="1" fill-rule="nonzero"/><path fill="#5479f7" d="M 299.777344 320.140625 C 299.6875 320.140625 299.597656 320.128906 299.507812 320.105469 L 279.925781 315.097656 C 265.203125 312.234375 253.035156 301.230469 251.058594 288.949219 L 249.222656 277.558594 C 249.128906 276.964844 249.527344 276.40625 250.121094 276.3125 C 250.714844 276.214844 251.269531 276.621094 251.367188 277.210938 L 253.199219 288.601562 C 255.042969 300.019531 266.476562 310.269531 280.402344 312.976562 L 300.042969 318 C 300.625 318.148438 300.976562 318.742188 300.828125 319.320312 C 300.703125 319.816406 300.261719 320.140625 299.777344 320.140625 " fill-opacity="1" fill-rule="nonzero"/><path fill="#5479f7" d="M 307.796875 322.40625 C 309.550781 319.4375 308.523438 315.574219 305.496094 313.785156 C 302.46875 312 298.59375 312.960938 296.839844 315.933594 C 295.085938 318.90625 296.113281 322.765625 299.140625 324.554688 C 302.164062 326.34375 306.042969 325.382812 307.796875 322.40625 " fill-opacity="1" fill-rule="nonzero"/><path fill="#5479f7" d="M 264.105469 228.40625 C 263.507812 228.40625 263.019531 227.917969 263.019531 227.316406 C 263.019531 201.195312 284.261719 179.945312 310.367188 179.945312 L 315.964844 179.945312 C 320.445312 179.945312 324.882812 180.570312 329.144531 181.804688 C 329.726562 181.972656 330.054688 182.574219 329.890625 183.152344 C 329.722656 183.726562 329.113281 184.058594 328.542969 183.890625 C 324.472656 182.714844 320.246094 182.121094 315.964844 182.121094 L 310.367188 182.121094 C 285.457031 182.121094 265.191406 202.394531 265.191406 227.316406 C 265.191406 227.917969 264.707031 228.40625 264.105469 228.40625 " fill-opacity="1" fill-rule="nonzero"/><path fill="#5479f7" d="M 276.523438 257.773438 C 275.140625 277.003906 259.855469 291.574219 242.382812 290.316406 C 224.90625 289.058594 211.863281 272.449219 213.246094 253.21875 C 214.628906 233.984375 229.917969 219.414062 247.390625 220.671875 C 264.863281 221.929688 277.910156 238.539062 276.523438 257.773438 " fill-opacity="1" fill-rule="nonzero"/><path fill="#000000" d="M 245.300781 221.683594 C 229.300781 221.683594 215.613281 235.433594 214.328125 253.292969 C 212.992188 271.894531 225.609375 288.019531 242.457031 289.234375 C 250.609375 289.816406 258.515625 286.875 264.738281 280.941406 C 270.988281 274.980469 274.789062 266.726562 275.441406 257.695312 C 276.089844 248.664062 273.511719 239.949219 268.175781 233.152344 C 262.867188 226.386719 255.457031 222.34375 247.3125 221.753906 C 246.636719 221.707031 245.964844 221.683594 245.300781 221.683594 Z M 244.5 291.480469 C 243.769531 291.480469 243.039062 291.453125 242.304688 291.398438 C 224.257812 290.101562 210.738281 272.9375 212.164062 253.140625 C 213.589844 233.339844 229.421875 218.289062 247.46875 219.589844 C 256.230469 220.21875 264.1875 224.558594 269.882812 231.808594 C 275.550781 239.03125 278.296875 248.277344 277.609375 257.851562 C 276.921875 267.425781 272.878906 276.179688 266.234375 282.515625 C 260.121094 288.34375 252.476562 291.480469 244.5 291.480469 " fill-opacity="1" fill-rule="nonzero"/><path fill="#99b9ff" d="M 267.074219 256.78125 C 266.089844 270.421875 255.246094 280.761719 242.847656 279.867188 C 230.453125 278.976562 221.199219 267.191406 222.179688 253.546875 C 223.160156 239.902344 234.007812 229.566406 246.402344 230.457031 C 258.800781 231.351562 268.054688 243.132812 267.074219 256.78125 " fill-opacity="1" fill-rule="nonzero"/><path fill="#000000" d="M 498.96875 608.226562 L 343.765625 608.226562 L 458.820312 431.175781 C 462.417969 425.644531 468.679688 422.289062 475.414062 422.289062 L 601.371094 422.289062 C 609.371094 422.289062 614.234375 430.855469 609.964844 437.429688 L 498.96875 608.226562 " fill-opacity="1" fill-rule="nonzero"/><path fill="#caddff" d="M 532.074219 484.375 C 527.03125 492.136719 516.1875 498.425781 507.847656 498.425781 C 499.515625 498.425781 496.84375 492.136719 501.886719 484.375 C 506.929688 476.613281 517.777344 470.324219 526.109375 470.324219 C 534.449219 470.324219 537.117188 476.613281 532.074219 484.375 " fill-opacity="1" fill-rule="nonzero"/><path fill="#000000" d="M 494.53125 623.011719 L 214.046875 623.011719 C 211.289062 623.011719 209.050781 620.773438 209.050781 618.015625 L 209.050781 606.960938 L 499.527344 606.960938 L 499.527344 618.015625 C 499.527344 620.773438 497.292969 623.011719 494.53125 623.011719 " fill-opacity="1" fill-rule="nonzero"/><path fill="#ffffff" d="M 490.890625 609.476562 L 357.605469 609.476562 C 357.003906 609.476562 356.519531 608.992188 356.519531 608.390625 C 356.519531 607.789062 357.003906 607.304688 357.605469 607.304688 L 490.890625 607.304688 C 491.492188 607.304688 491.976562 607.789062 491.976562 608.390625 C 491.976562 608.992188 491.492188 609.476562 490.890625 609.476562 " fill-opacity="1" fill-rule="nonzero"/><path fill="#000000" d="M 600.753906 323.835938 C 600.152344 323.835938 599.671875 323.351562 599.671875 322.75 L 599.671875 317.128906 C 599.671875 316.53125 600.152344 316.046875 600.753906 316.046875 C 601.355469 316.046875 601.839844 316.53125 601.839844 317.128906 L 601.839844 322.75 C 601.839844 323.351562 601.355469 323.835938 600.753906 323.835938 " fill-opacity="1" fill-rule="nonzero"/><path fill="#000000" d="M 600.753906 336.929688 C 600.152344 336.929688 599.671875 336.441406 599.671875 335.839844 L 599.671875 330.222656 C 599.671875 329.621094 600.152344 329.136719 600.753906 329.136719 C 601.355469 329.136719 601.839844 329.621094 601.839844 330.222656 L 601.839844 335.839844 C 601.839844 336.441406 601.355469 336.929688 600.753906 336.929688 " fill-opacity="1" fill-rule="nonzero"/><path fill="#000000" d="M 597.019531 327.574219 L 591.40625 327.574219 C 590.804688 327.574219 590.320312 327.085938 590.320312 326.488281 C 590.320312 325.886719 590.804688 325.398438 591.40625 325.398438 L 597.019531 325.398438 C 597.621094 325.398438 598.109375 325.886719 598.109375 326.488281 C 598.109375 327.085938 597.621094 327.574219 597.019531 327.574219 " fill-opacity="1" fill-rule="nonzero"/><path fill="#000000" d="M 610.105469 327.574219 L 604.488281 327.574219 C 603.890625 327.574219 603.40625 327.085938 603.40625 326.488281 C 603.40625 325.886719 603.890625 325.398438 604.488281 325.398438 L 610.105469 325.398438 C 610.703125 325.398438 611.191406 325.886719 611.191406 326.488281 C 611.191406 327.085938 610.703125 327.574219 610.105469 327.574219 " fill-opacity="1" fill-rule="nonzero"/><path fill="#000000" d="M 32.324219 434.230469 C 31.859375 434.230469 31.429688 433.929688 31.285156 433.464844 C 24.578125 411.644531 21.179688 388.960938 21.179688 366.039062 C 21.179688 359.769531 21.4375 353.441406 21.945312 347.226562 C 21.992188 346.628906 22.523438 346.1875 23.117188 346.230469 C 23.714844 346.28125 24.160156 346.804688 24.109375 347.402344 C 23.605469 353.558594 23.351562 359.828125 23.351562 366.039062 C 23.351562 388.746094 26.71875 411.214844 33.363281 432.824219 C 33.539062 433.398438 33.214844 434.007812 32.644531 434.183594 C 32.535156 434.21875 32.429688 434.230469 32.324219 434.230469 " fill-opacity="1" fill-rule="nonzero"/><path fill="#000000" d="M 51.484375 457.484375 C 51.058594 457.484375 50.65625 457.230469 50.484375 456.808594 C 41.78125 435.710938 36.292969 413.441406 34.164062 390.617188 C 33.585938 384.382812 33.253906 378.054688 33.183594 371.8125 C 33.175781 371.210938 33.65625 370.722656 34.253906 370.714844 C 34.257812 370.714844 34.265625 370.714844 34.269531 370.714844 C 34.863281 370.714844 35.347656 371.191406 35.355469 371.789062 C 35.425781 377.96875 35.753906 384.238281 36.328125 390.414062 C 38.433594 413.023438 43.871094 435.085938 52.488281 455.980469 C 52.71875 456.539062 52.457031 457.171875 51.898438 457.402344 C 51.765625 457.457031 51.625 457.484375 51.484375 457.484375 " fill-opacity="1" fill-rule="nonzero"/><path fill="#000000" d="M 356.695312 38.304688 C 356.625 38.304688 356.558594 38.296875 356.488281 38.285156 C 337.605469 34.597656 318.316406 33.332031 299.148438 34.511719 C 298.523438 34.546875 298.035156 34.09375 298 33.496094 C 297.960938 32.894531 298.414062 32.382812 299.015625 32.34375 C 318.367188 31.152344 337.84375 32.433594 356.898438 36.148438 C 357.492188 36.265625 357.875 36.835938 357.757812 37.425781 C 357.65625 37.941406 357.203125 38.304688 356.695312 38.304688 " fill-opacity="1" fill-rule="nonzero"/><path fill="#000000" d="M 271.996094 47.695312 C 271.46875 47.695312 271.003906 47.3125 270.921875 46.777344 C 270.828125 46.1875 271.234375 45.628906 271.828125 45.539062 C 291.304688 42.503906 311.140625 42.003906 330.78125 44.054688 C 331.378906 44.113281 331.808594 44.652344 331.75 45.246094 C 331.6875 45.84375 331.152344 46.28125 330.554688 46.21875 C 311.101562 44.1875 291.453125 44.679688 272.160156 47.683594 C 272.105469 47.691406 272.050781 47.695312 271.996094 47.695312 " fill-opacity="1" fill-rule="nonzero"/><path fill="#000000" d="M 598.714844 300.132812 C 598.160156 300.132812 597.6875 299.710938 597.632812 299.140625 C 597.09375 292.984375 596.285156 286.765625 595.238281 280.648438 C 591.414062 258.269531 584.308594 236.691406 574.117188 216.507812 C 573.847656 215.972656 574.0625 215.320312 574.597656 215.050781 C 575.128906 214.777344 575.789062 214.992188 576.054688 215.527344 C 586.34375 235.90625 593.519531 257.6875 597.382812 280.28125 C 598.441406 286.457031 599.25 292.742188 599.800781 298.953125 C 599.851562 299.550781 599.40625 300.078125 598.808594 300.132812 C 598.78125 300.132812 598.746094 300.132812 598.714844 300.132812 " fill-opacity="1" fill-rule="nonzero"/><path fill="#000000" d="M 583.507812 277.898438 C 582.996094 277.898438 582.535156 277.53125 582.441406 277.007812 C 581.328125 270.929688 579.949219 264.8125 578.34375 258.808594 C 572.453125 236.882812 563.378906 216.054688 551.359375 196.914062 C 551.042969 196.402344 551.195312 195.730469 551.703125 195.410156 C 552.207031 195.09375 552.878906 195.246094 553.203125 195.753906 C 565.332031 215.082031 574.5 236.109375 580.441406 258.25 C 582.0625 264.300781 583.453125 270.484375 584.578125 276.613281 C 584.6875 277.207031 584.292969 277.773438 583.703125 277.882812 C 583.636719 277.894531 583.574219 277.898438 583.507812 277.898438 " fill-opacity="1" fill-rule="nonzero"/><path fill="#000000" d="M 257.578125 63.640625 L 257.585938 63.640625 Z M 252.621094 58.910156 C 251.800781 58.910156 251.003906 59.164062 250.328125 59.652344 C 249.476562 60.265625 248.914062 61.175781 248.746094 62.214844 C 248.582031 63.25 248.828125 64.285156 249.4375 65.140625 C 250.054688 65.992188 250.960938 66.554688 252 66.71875 C 254.132812 67.066406 256.160156 65.605469 256.503906 63.464844 C 256.851562 61.328125 255.390625 59.304688 253.253906 58.960938 C 253.042969 58.925781 252.828125 58.910156 252.621094 58.910156 Z M 252.628906 68.945312 C 252.308594 68.945312 251.980469 68.917969 251.652344 68.863281 C 250.042969 68.605469 248.632812 67.730469 247.679688 66.410156 C 246.726562 65.089844 246.34375 63.476562 246.605469 61.867188 C 246.863281 60.253906 247.738281 58.84375 249.054688 57.886719 C 250.378906 56.933594 251.996094 56.554688 253.601562 56.816406 C 256.921875 57.351562 259.1875 60.492188 258.648438 63.816406 C 258.164062 66.808594 255.570312 68.945312 252.628906 68.945312 " fill-opacity="1" fill-rule="nonzero"/><path fill="#000000" d="M 35.226562 310.027344 C 33.332031 310.027344 31.660156 311.402344 31.347656 313.328125 C 31.003906 315.46875 32.460938 317.492188 34.601562 317.839844 C 35.636719 318.007812 36.675781 317.757812 37.527344 317.144531 C 38.378906 316.53125 38.9375 315.621094 39.105469 314.585938 C 39.273438 313.550781 39.027344 312.507812 38.414062 311.660156 C 37.800781 310.804688 36.890625 310.246094 35.855469 310.078125 C 35.644531 310.042969 35.433594 310.027344 35.226562 310.027344 Z M 35.242188 320.0625 C 34.914062 320.0625 34.582031 320.039062 34.253906 319.980469 C 30.933594 319.445312 28.667969 316.304688 29.207031 312.980469 C 29.742188 309.660156 32.886719 307.398438 36.203125 307.929688 C 37.808594 308.191406 39.222656 309.0625 40.175781 310.386719 C 41.128906 311.707031 41.511719 313.324219 41.25 314.933594 C 40.992188 316.539062 40.117188 317.953125 38.796875 318.90625 C 37.746094 319.664062 36.511719 320.0625 35.242188 320.0625 " fill-opacity="1" fill-rule="nonzero"/><path fill="#5479f7" d="M 481.613281 32.957031 C 424.15625 33.570312 377.894531 63.507812 378.289062 99.816406 C 378.460938 116.0625 387.949219 130.832031 403.527344 142.140625 L 385.980469 178.335938 L 435.65625 157.785156 C 449.894531 162.214844 465.996094 164.628906 483.023438 164.445312 C 540.480469 163.832031 586.742188 133.894531 586.347656 97.585938 C 585.960938 61.277344 539.066406 32.339844 481.613281 32.957031 " fill-opacity="1" fill-rule="nonzero"/><path fill="#000000" d="M 522.773438 32.570312 C 522.652344 32.570312 522.535156 32.546875 522.414062 32.511719 C 521.070312 32.035156 519.679688 31.578125 518.285156 31.136719 C 517.714844 30.957031 517.390625 30.347656 517.570312 29.773438 C 517.75 29.203125 518.359375 28.882812 518.933594 29.0625 C 520.355469 29.511719 521.765625 29.976562 523.132812 30.460938 C 523.699219 30.660156 524 31.277344 523.800781 31.84375 C 523.640625 32.289062 523.222656 32.570312 522.773438 32.570312 " fill-opacity="1" fill-rule="nonzero"/><path fill="#000000" d="M 470.566406 155.929688 C 466.855469 155.929688 463.132812 155.804688 459.472656 155.5625 C 458.875 155.519531 458.417969 155.003906 458.457031 154.40625 C 458.5 153.804688 459.023438 153.34375 459.617188 153.390625 C 463.808594 153.671875 468.082031 153.792969 472.332031 153.746094 C 499.917969 153.449219 525.761719 146.390625 545.109375 133.875 C 564.300781 121.453125 574.769531 105.15625 574.585938 87.984375 C 574.371094 67.796875 559.519531 49.28125 533.851562 37.183594 C 533.3125 36.925781 533.078125 36.28125 533.332031 35.734375 C 533.585938 35.191406 534.234375 34.960938 534.78125 35.214844 C 561.230469 47.683594 576.53125 66.90625 576.757812 87.957031 C 576.949219 105.90625 566.132812 122.859375 546.289062 135.699219 C 526.605469 148.4375 500.347656 155.617188 472.359375 155.921875 C 471.765625 155.925781 471.164062 155.929688 470.566406 155.929688 " fill-opacity="1" fill-rule="nonzero"/><path fill="#000000" d="M 375.304688 169.808594 C 375.007812 169.808594 374.722656 169.691406 374.511719 169.46875 C 374.203125 169.140625 374.128906 168.652344 374.328125 168.25 L 391.476562 132.863281 C 375.542969 121.042969 366.6875 105.925781 366.523438 90.214844 C 366.328125 72.265625 377.144531 55.3125 396.988281 42.472656 C 416.671875 29.738281 442.929688 22.558594 470.921875 22.257812 C 477.511719 22.1875 484.113281 22.507812 490.539062 23.207031 C 491.132812 23.265625 491.566406 23.804688 491.5 24.402344 C 491.433594 25 490.890625 25.425781 490.300781 25.363281 C 483.964844 24.675781 477.460938 24.355469 470.941406 24.429688 C 443.363281 24.726562 417.511719 31.78125 398.167969 44.300781 C 378.976562 56.71875 368.507812 73.015625 368.691406 90.191406 C 368.855469 105.441406 377.660156 120.160156 393.484375 131.648438 C 393.910156 131.953125 394.054688 132.527344 393.824219 133 L 377.527344 166.628906 L 424.5625 147.167969 C 424.800781 147.070312 425.058594 147.058594 425.300781 147.132812 C 429.601562 148.472656 434.09375 149.625 438.648438 150.566406 C 439.234375 150.691406 439.613281 151.261719 439.496094 151.847656 C 439.375 152.4375 438.796875 152.816406 438.210938 152.699219 C 433.71875 151.769531 429.289062 150.636719 425.03125 149.324219 L 375.71875 169.726562 C 375.582031 169.78125 375.441406 169.808594 375.304688 169.808594 " fill-opacity="1" fill-rule="nonzero"/><path fill="#ffffff" d="M 440.203125 117.125 L 405.96875 117.125 L 405.96875 111.28125 L 422.925781 92.773438 C 425.375 90.042969 427.117188 87.765625 428.152344 85.933594 C 429.191406 84.105469 429.710938 82.265625 429.710938 80.421875 C 429.710938 77.996094 429.027344 76.039062 427.664062 74.546875 C 426.300781 73.050781 424.46875 72.308594 422.160156 72.308594 C 419.40625 72.308594 417.273438 73.144531 415.761719 74.824219 C 414.246094 76.503906 413.484375 78.800781 413.484375 81.714844 L 404.988281 81.714844 C 404.988281 78.617188 405.691406 75.820312 407.101562 73.339844 C 408.515625 70.851562 410.53125 68.921875 413.152344 67.546875 C 415.777344 66.167969 418.800781 65.480469 422.226562 65.480469 C 427.171875 65.480469 431.070312 66.722656 433.925781 69.207031 C 436.78125 71.695312 438.210938 75.125 438.210938 79.511719 C 438.210938 82.058594 437.492188 84.722656 436.0625 87.507812 C 434.625 90.296875 432.277344 93.460938 429.011719 97.007812 L 416.5625 110.335938 L 440.203125 110.335938 L 440.203125 117.125 " fill-opacity="1" fill-rule="nonzero"/><path fill="#ffffff" d="M 453.589844 98.96875 L 466.917969 98.96875 L 466.917969 77.695312 L 466.285156 78.816406 Z M 475.414062 98.96875 L 481.738281 98.96875 L 481.738281 105.789062 L 475.414062 105.789062 L 475.414062 117.125 L 466.917969 117.125 L 466.917969 105.789062 L 444.921875 105.789062 L 444.675781 100.609375 L 466.636719 66.183594 L 475.414062 66.183594 L 475.414062 98.96875 " fill-opacity="1" fill-rule="nonzero"/><path fill="#ffffff" d="M 490.308594 121.5 L 483.632812 121.5 L 503.667969 66.183594 L 510.34375 66.183594 L 490.308594 121.5 " fill-opacity="1" fill-rule="nonzero"/><path fill="#ffffff" d="M 549.582031 70.90625 L 529.226562 117.125 L 520.3125 117.125 L 540.628906 73.003906 L 514.296875 73.003906 L 514.296875 66.183594 L 549.582031 66.183594 L 549.582031 70.90625 " fill-opacity="1" fill-rule="nonzero"/></svg>